<svg width="12" height="7" viewBox="0 0 12 7" fill="none" xmlns="http://www.w3.org/2000/svg">
<path d="M11.7625 1.3871L6.44327 6.82258C6.37995 6.8871 6.31135 6.93269 6.23747 6.95936C6.16359 6.98645 6.08443 7 6 7C5.91557 7 5.83641 6.98645 5.76253 6.95936C5.68865 6.93269 5.62005 6.8871 5.55673 6.82258L0.221636 1.3871C0.0738786 1.23656 0 1.04839 0 0.82258C0 0.596774 0.0791557 0.403226 0.237467 0.241935C0.395778 0.0806451 0.580475 0 0.791557 0C1.00264 0 1.18734 0.0806451 1.34565 0.241935L6 4.98387L10.6544 0.241935C10.8021 0.0913978 10.9841 0.0161285 11.2002 0.0161285C11.4168 0.0161285 11.6042 0.0967741 11.7625 0.258064C11.9208 0.419354 12 0.607527 12 0.82258C12 1.03763 11.9208 1.22581 11.7625 1.3871Z" fill="white"/>
</svg>
