<svg width="27" height="27" viewBox="0 0 27 27" fill="none" xmlns="http://www.w3.org/2000/svg">
<path fill-rule="evenodd" clip-rule="evenodd" d="M13.5 0C6.04125 0 0 6.19406 0 13.8415C0 19.9663 3.86437 25.1396 9.23063 26.9736C9.90563 27.0947 10.1587 26.6794 10.1587 26.3161C10.1587 25.9874 10.1419 24.8973 10.1419 23.7381C6.75 24.3783 5.8725 22.8903 5.6025 22.1117C5.45062 21.7138 4.7925 20.4854 4.21875 20.1566C3.74625 19.8971 3.07125 19.2569 4.20187 19.2396C5.265 19.2223 6.02437 20.2431 6.2775 20.6584C7.4925 22.7519 9.43312 22.1636 10.2094 21.8003C10.3275 20.9006 10.6819 20.295 11.07 19.949C8.06625 19.603 4.9275 18.4091 4.9275 13.1148C4.9275 11.6095 5.45062 10.3638 6.31125 9.3949C6.17625 9.04886 5.70375 7.63011 6.44625 5.72691C6.44625 5.72691 7.57687 5.36357 10.1587 7.14566C11.2387 6.83422 12.3862 6.67851 13.5337 6.67851C14.6812 6.67851 15.8287 6.83422 16.9088 7.14566C19.4906 5.34627 20.6213 5.72691 20.6213 5.72691C21.3638 7.63011 20.8913 9.04886 20.7563 9.3949C21.6169 10.3638 22.14 11.5922 22.14 13.1148C22.14 18.4265 18.9844 19.603 15.9806 19.949C16.47 20.3816 16.8919 21.212 16.8919 22.5097C16.8919 24.361 16.875 25.8489 16.875 26.3161C16.875 26.6794 17.1281 27.112 17.8031 26.9736C20.4831 26.0459 22.8118 24.2799 24.4616 21.9242C26.1114 19.5684 26.9992 16.7416 27 13.8415C27 6.19406 20.9587 0 13.5 0Z" fill="white"/>
</svg>
